<svg width="18" height="18" viewBox="0 0 18 18" fill="none" xmlns="http://www.w3.org/2000/svg">
<path fill-rule="evenodd" clip-rule="evenodd" d="M17.7911 0.209398C17.5142 -0.0674794 17.0653 -0.0674801 16.7884 0.209397L8.99998 7.99784L1.21154 0.209397C0.934662 -0.0674801 0.485756 -0.0674794 0.208879 0.209398C-0.0679981 0.486275 -0.0679982 0.935182 0.208879 1.21206L7.99732 9.0005L0.208879 16.7889C-0.0679986 17.0658 -0.0679985 17.5147 0.208879 17.7916C0.485756 18.0685 0.934662 18.0685 1.21154 17.7916L8.99998 10.0032L16.7884 17.7916C17.0653 18.0685 17.5142 18.0685 17.7911 17.7916C18.068 17.5147 18.068 17.0658 17.7911 16.7889L10.0026 9.0005L17.7911 1.21206C18.068 0.935182 18.068 0.486275 17.7911 0.209398Z" fill="white"/>
</svg>
