<svg width="18" height="21" viewBox="0 0 18 21" fill="none" xmlns="http://www.w3.org/2000/svg">
<path fill-rule="evenodd" clip-rule="evenodd" d="M8.65661 0.088062C9.99524 0.087682 11.1314 1.11242 11.2628 2.40763L11.2737 2.56431L11.3206 3.81036L11.4127 3.85254C13.3502 4.77926 14.7072 6.61862 14.9612 8.71211L14.9849 8.94573L15.0005 9.20629C15.0891 11.5511 15.4645 13.638 16.227 15.1018C16.5897 15.8003 16.9395 16.178 17.1546 16.3129C17.5052 16.4688 17.6968 16.8345 17.6301 17.2091C17.5678 17.555 17.2726 17.8077 16.9206 17.8471L16.8233 17.8525L12.5639 17.8544L12.5572 17.9786C12.4286 19.5039 11.2252 20.7119 9.67497 20.8716L9.50133 20.885L9.32506 20.8896C7.67829 20.8903 6.26074 19.7218 5.92509 18.1799L5.89229 18.0071L5.87283 17.8575L1.59881 17.8612C1.28409 17.8608 0.991683 17.6916 0.841088 17.4313L0.791496 17.3295L0.759388 17.2314C0.664672 16.8563 0.832273 16.4831 1.15142 16.3386C1.37995 16.1891 1.69736 15.816 2.00695 15.1207C2.65803 13.6587 2.87653 11.5735 2.78961 9.22827C2.70272 6.92904 3.96558 4.86191 5.98514 3.85652L6.06474 3.81821L6.01786 2.58221C5.97071 1.31205 6.90645 0.259886 8.15271 0.107159L8.31006 0.0928016L8.46428 0.0881076L8.65661 0.088062ZM8.72334 4.85829C6.26978 4.8589 4.35025 6.81255 4.43969 9.2127C4.5479 12.1001 4.21282 14.3807 3.43729 15.9935L3.3883 16.0942L3.31539 16.2326L14.9918 16.2268L14.8581 15.9984C14.0078 14.4683 13.5085 12.3353 13.3678 9.65222L13.3487 9.22497C13.2583 6.81709 11.1832 4.85651 8.72334 4.85829ZM10.9018 17.8564L7.53676 17.8575L7.54642 17.9089C7.71831 18.6348 8.36541 19.1953 9.13345 19.2586L9.27141 19.2639L9.4045 19.2592C10.1741 19.2035 10.7778 18.6437 10.8943 17.9211L10.9018 17.8564ZM8.80437 1.72202L8.70075 1.71618L8.51002 1.7159C8.06152 1.716 7.70606 2.04531 7.67203 2.4678L7.66999 2.56685L7.69775 3.30941L7.74912 3.3009C7.95161 3.26989 8.15691 3.24905 8.36448 3.23853L8.67747 3.2305C8.99073 3.23025 9.30215 3.25341 9.60995 3.29941L9.64839 3.30523L9.62066 2.58099C9.60585 2.17402 9.30026 1.82926 8.90495 1.73913L8.80437 1.72202Z" fill="white"/>
</svg>
